<?xml version="1.0" encoding="utf-8"?>
<!-- Generator: Adobe Illustrator 15.0.2, SVG Export Plug-In . SVG Version: 6.00 Build 0)  -->
<!DOCTYPE svg PUBLIC "-//W3C//DTD SVG 1.1//EN" "http://www.w3.org/Graphics/SVG/1.1/DTD/svg11.dtd">
<svg version="1.1" id="Layer_1" xmlns="http://www.w3.org/2000/svg" xmlns:xlink="http://www.w3.org/1999/xlink" x="0px" y="0px"
	 width="1190.55px" height="841.89px" viewBox="0 0 1190.55 841.89" enable-background="new 0 0 1190.55 841.89"
	 xml:space="preserve">
<g>
	<g>
		<path fill="#DD4814" d="M657.621,123.565c-73.488,0-133.063,59.573-133.063,133.062s59.576,133.069,133.063,133.069
			c73.49,0,133.064-59.58,133.064-133.069S731.111,123.565,657.621,123.565z"/>
		<path fill="#FFFFFF" d="M593.043,338.909c-1.128,1.128-2.632,1.75-4.233,1.75l0,0c-1.605,0-3.112-0.624-4.244-1.757
			c-1.129-1.128-1.751-2.632-1.751-4.234c0-1.602,0.622-3.105,1.751-4.235c1.133-1.132,2.64-1.756,4.243-1.756
			c1.601,0,3.104,0.622,4.233,1.751c1.131,1.131,1.753,2.637,1.753,4.24C594.797,336.273,594.174,337.779,593.043,338.909z"/>
		<path fill="#FFFFFF" d="M619.154,249.424c-0.603-1.92-1.47-3.498-2.579-4.69c-1.105-1.193-2.443-2.085-3.978-2.653
			c-1.543-0.574-3.291-0.865-5.194-0.865s-3.636,0.29-5.147,0.863c-1.509,0.569-2.834,1.462-3.939,2.654
			c-1.107,1.19-1.974,2.769-2.578,4.691c-0.606,1.933-0.914,4.299-0.914,7.032v69.735h-12.038V255.39
			c0-3.572,0.484-6.896,1.438-9.88c0.957-2.996,2.463-5.641,4.475-7.863c2.015-2.226,4.586-3.976,7.643-5.203
			c3.05-1.226,6.742-1.848,10.973-1.848c4.229,0,7.949,0.622,11.059,1.847c3.115,1.227,5.717,2.978,7.732,5.204
			c2.01,2.219,3.532,4.863,4.52,7.861c0.985,2.985,1.485,6.311,1.485,9.882V265h-12.038v-8.544
			C620.072,253.733,619.763,251.367,619.154,249.424z"/>
		<path fill="#FFFFFF" d="M669.396,298.309c0,3.579-0.499,6.905-1.483,9.885c-0.985,2.99-2.507,5.634-4.521,7.86
			c-2.016,2.225-4.617,3.976-7.732,5.203c-3.112,1.226-6.833,1.848-11.06,1.848s-7.917-0.622-10.972-1.849
			c-3.055-1.226-5.626-2.976-7.642-5.201c-2.014-2.226-3.52-4.872-4.476-7.864c-0.954-2.983-1.437-6.308-1.437-9.882v-30.425h12.037
			v29.361c0,2.734,0.309,5.099,0.914,7.029c0.603,1.924,1.471,3.502,2.578,4.694c1.106,1.194,2.434,2.087,3.938,2.654
			c1.511,0.573,3.242,0.863,5.147,0.863c1.903,0,3.651-0.291,5.193-0.864c1.533-0.568,2.871-1.461,3.979-2.653
			c1.108-1.194,1.979-2.773,2.579-4.693c0.607-1.94,0.917-4.305,0.917-7.03v-29.361h12.038V298.309z"/>
		<path fill="#FFFFFF" d="M657.387,259.099c0-3.302,2.685-5.989,5.986-5.989c3.305,0,5.995,2.687,5.995,5.989
			c0,3.305-2.69,5.994-5.995,5.994C660.071,265.093,657.387,262.404,657.387,259.099z"/>
		<path fill="#FFFFFF" d="M693.726,174.163c-0.603-1.92-1.472-3.499-2.581-4.693c-1.107-1.193-2.446-2.085-3.979-2.652
			c-1.54-0.573-3.288-0.863-5.193-0.863c-1.903,0-3.635,0.29-5.146,0.862c-1.508,0.569-2.834,1.462-3.941,2.653
			c-1.105,1.193-1.973,2.772-2.575,4.693c-0.606,1.932-0.914,4.298-0.914,7.032v69.734h-12.038v-70.8
			c0-3.571,0.482-6.896,1.438-9.881c0.958-2.996,2.463-5.642,4.477-7.863c2.012-2.224,4.584-3.975,7.643-5.202
			c3.055-1.227,6.744-1.849,10.969-1.849c4.227,0,7.948,0.622,11.06,1.848c3.119,1.228,5.719,2.979,7.731,5.203
			c2.014,2.22,3.535,4.865,4.522,7.86c0.983,2.988,1.483,6.314,1.483,9.885v9.609h-12.04v-8.543
			C694.64,178.467,694.332,176.101,693.726,174.163z"/>
		<path fill="#FFFFFF" d="M743.963,223.048c0,3.577-0.499,6.903-1.482,9.884c-0.986,2.993-2.506,5.638-4.518,7.86
			c-2.018,2.226-4.619,3.976-7.732,5.203c-3.115,1.226-6.837,1.848-11.06,1.848c-4.229,0-7.921-0.622-10.974-1.849
			c-3.057-1.226-5.626-2.976-7.642-5.201c-2.012-2.223-3.518-4.868-4.476-7.863c-0.954-2.989-1.438-6.313-1.438-9.881v-30.426
			h12.038v29.361c0,2.729,0.308,5.095,0.915,7.031c0.603,1.92,1.469,3.499,2.58,4.692c1.106,1.194,2.432,2.087,3.937,2.654
			c1.513,0.573,3.243,0.863,5.146,0.863c1.907,0,3.654-0.291,5.194-0.864c1.534-0.566,2.872-1.459,3.981-2.653
			c1.106-1.19,1.975-2.769,2.577-4.692c0.607-1.936,0.916-4.301,0.916-7.031v-29.361h12.037V223.048z"/>
	</g>
	<g>
		<path fill="#FFFFFF" d="M360.49,646.299c-2.566,0-5.878-0.32-9.943-0.962c-4.06-0.642-7.482-1.498-10.264-2.565l3.849-24.377
			c2.14,0.641,4.601,1.172,7.377,1.603c2.781,0.427,5.347,0.642,7.698,0.642c10.265,0,17.586-3.157,21.972-9.461
			c4.38-6.311,6.575-15.557,6.575-27.746V419.527h29.83v163.584c0,21.38-4.866,37.257-14.594,47.631
			C393.257,641.112,379.094,646.299,360.49,646.299z"/>
		<path fill="#FFFFFF" d="M595.598,581.507c-6.847,1.714-15.877,3.528-27.103,5.454c-11.227,1.924-24.217,2.887-38.972,2.887
			c-12.83,0-23.63-1.875-32.396-5.614c-8.771-3.738-15.826-9.03-21.168-15.876c-5.348-6.842-9.197-14.916-11.547-24.218
			c-2.356-9.302-3.528-19.616-3.528-30.952v-93.66h29.83v87.245c0,20.317,3.208,34.856,9.622,43.622
			c6.416,8.771,17.21,13.15,32.396,13.15c3.208,0,6.52-0.105,9.943-0.32c3.417-0.211,6.625-0.481,9.623-0.802
			c2.992-0.321,5.718-0.642,8.179-0.963c2.457-0.32,4.22-0.691,5.293-1.122V419.527h29.83V581.507z"/>
		<path fill="#FFFFFF" d="M615.162,646.299c-2.566,0-5.879-0.32-9.943-0.962c-4.06-0.642-7.484-1.498-10.265-2.565l3.85-24.377
			c2.14,0.641,4.601,1.172,7.377,1.603c2.782,0.427,5.348,0.642,7.698,0.642c10.265,0,17.587-3.157,21.972-9.461
			c4.38-6.311,6.575-15.557,6.575-27.746V419.527h29.83v163.584c0,21.38-4.866,37.257-14.595,47.631
			C647.929,641.112,633.766,646.299,615.162,646.299z"/>
		<path fill="#FFFFFF" d="M850.27,581.507c-6.846,1.714-15.878,3.528-27.104,5.454c-11.227,1.924-24.217,2.887-38.972,2.887
			c-12.83,0-23.63-1.875-32.396-5.614c-8.771-3.738-15.827-9.03-21.17-15.876c-5.347-6.842-9.196-14.916-11.547-24.218
			c-2.355-9.302-3.528-19.616-3.528-30.952v-93.66h29.83v87.245c0,20.317,3.207,34.856,9.622,43.622
			c6.415,8.771,17.211,13.15,32.396,13.15c3.207,0,6.521-0.105,9.942-0.32c3.419-0.211,6.627-0.481,9.624-0.802
			c2.991-0.321,5.718-0.642,8.179-0.963c2.455-0.32,4.22-0.691,5.292-1.122V419.527h29.83V581.507z"/>
	</g>
</g>
</svg>
